<mxfile host="app.diagrams.net" modified="2021-05-24T22:53:44.050Z" agent="5.0 (Windows NT 10.0; Win64; x64) AppleWebKit/537.36 (KHTML, like Gecko) Chrome/90.0.4430.212 Safari/537.36" etag="qT8WaSms7Z-n9Qeg9vdY" version="14.7.0" type="github" pages="3">
  <diagram id="C5RBs43oDa-KdzZeNtuy" name="Page-1">
    <mxGraphModel dx="1038" dy="580" grid="1" gridSize="10" guides="1" tooltips="1" connect="1" arrows="1" fold="1" page="1" pageScale="1" pageWidth="827" pageHeight="1169" math="0" shadow="0">
      <root>
        <mxCell id="WIyWlLk6GJQsqaUBKTNV-0" />
        <mxCell id="WIyWlLk6GJQsqaUBKTNV-1" parent="WIyWlLk6GJQsqaUBKTNV-0" />
        <mxCell id="ZDeLqN6teNjvPkuS5_9t-14" value="" style="edgeStyle=orthogonalEdgeStyle;rounded=0;orthogonalLoop=1;jettySize=auto;html=1;" edge="1" parent="WIyWlLk6GJQsqaUBKTNV-1" source="ZDeLqN6teNjvPkuS5_9t-15" target="ZDeLqN6teNjvPkuS5_9t-17">
          <mxGeometry relative="1" as="geometry" />
        </mxCell>
        <mxCell id="ZDeLqN6teNjvPkuS5_9t-15" value="start" style="ellipse;whiteSpace=wrap;html=1;" vertex="1" parent="WIyWlLk6GJQsqaUBKTNV-1">
          <mxGeometry x="340" y="50" width="120" height="80" as="geometry" />
        </mxCell>
        <mxCell id="ZDeLqN6teNjvPkuS5_9t-16" value="" style="edgeStyle=orthogonalEdgeStyle;rounded=0;orthogonalLoop=1;jettySize=auto;html=1;" edge="1" parent="WIyWlLk6GJQsqaUBKTNV-1" source="ZDeLqN6teNjvPkuS5_9t-17" target="ZDeLqN6teNjvPkuS5_9t-19">
          <mxGeometry relative="1" as="geometry" />
        </mxCell>
        <mxCell id="ZDeLqN6teNjvPkuS5_9t-17" value="count=0" style="rounded=0;whiteSpace=wrap;html=1;" vertex="1" parent="WIyWlLk6GJQsqaUBKTNV-1">
          <mxGeometry x="340" y="170" width="120" height="60" as="geometry" />
        </mxCell>
        <mxCell id="ZDeLqN6teNjvPkuS5_9t-18" value="" style="edgeStyle=orthogonalEdgeStyle;rounded=0;orthogonalLoop=1;jettySize=auto;html=1;" edge="1" parent="WIyWlLk6GJQsqaUBKTNV-1" source="ZDeLqN6teNjvPkuS5_9t-19" target="ZDeLqN6teNjvPkuS5_9t-21">
          <mxGeometry relative="1" as="geometry" />
        </mxCell>
        <mxCell id="ZDeLqN6teNjvPkuS5_9t-19" value="print hello world" style="shape=parallelogram;perimeter=parallelogramPerimeter;whiteSpace=wrap;html=1;fixedSize=1;" vertex="1" parent="WIyWlLk6GJQsqaUBKTNV-1">
          <mxGeometry x="340" y="280" width="120" height="60" as="geometry" />
        </mxCell>
        <mxCell id="ZDeLqN6teNjvPkuS5_9t-20" value="" style="edgeStyle=orthogonalEdgeStyle;rounded=0;orthogonalLoop=1;jettySize=auto;html=1;" edge="1" parent="WIyWlLk6GJQsqaUBKTNV-1" source="ZDeLqN6teNjvPkuS5_9t-21" target="ZDeLqN6teNjvPkuS5_9t-24">
          <mxGeometry relative="1" as="geometry" />
        </mxCell>
        <mxCell id="ZDeLqN6teNjvPkuS5_9t-21" value="count=count+1" style="rounded=0;whiteSpace=wrap;html=1;" vertex="1" parent="WIyWlLk6GJQsqaUBKTNV-1">
          <mxGeometry x="340" y="380" width="120" height="60" as="geometry" />
        </mxCell>
        <mxCell id="ZDeLqN6teNjvPkuS5_9t-22" value="" style="edgeStyle=orthogonalEdgeStyle;rounded=0;orthogonalLoop=1;jettySize=auto;html=1;" edge="1" parent="WIyWlLk6GJQsqaUBKTNV-1" source="ZDeLqN6teNjvPkuS5_9t-24" target="ZDeLqN6teNjvPkuS5_9t-27">
          <mxGeometry relative="1" as="geometry" />
        </mxCell>
        <mxCell id="ZDeLqN6teNjvPkuS5_9t-23" value="" style="edgeStyle=orthogonalEdgeStyle;rounded=0;orthogonalLoop=1;jettySize=auto;html=1;" edge="1" parent="WIyWlLk6GJQsqaUBKTNV-1" source="ZDeLqN6teNjvPkuS5_9t-24" target="ZDeLqN6teNjvPkuS5_9t-25">
          <mxGeometry relative="1" as="geometry" />
        </mxCell>
        <mxCell id="ZDeLqN6teNjvPkuS5_9t-24" value="c&amp;lt;10" style="rhombus;whiteSpace=wrap;html=1;" vertex="1" parent="WIyWlLk6GJQsqaUBKTNV-1">
          <mxGeometry x="355" y="470" width="90" height="80" as="geometry" />
        </mxCell>
        <mxCell id="ZDeLqN6teNjvPkuS5_9t-25" value="End" style="ellipse;whiteSpace=wrap;html=1;" vertex="1" parent="WIyWlLk6GJQsqaUBKTNV-1">
          <mxGeometry x="355" y="585" width="90" height="70" as="geometry" />
        </mxCell>
        <mxCell id="ZDeLqN6teNjvPkuS5_9t-26" value="" style="edgeStyle=orthogonalEdgeStyle;rounded=0;orthogonalLoop=1;jettySize=auto;html=1;" edge="1" parent="WIyWlLk6GJQsqaUBKTNV-1" source="ZDeLqN6teNjvPkuS5_9t-27" target="ZDeLqN6teNjvPkuS5_9t-19">
          <mxGeometry relative="1" as="geometry" />
        </mxCell>
        <mxCell id="ZDeLqN6teNjvPkuS5_9t-27" value="" style="shape=waypoint;size=6;pointerEvents=1;points=[];fillColor=#ffffff;resizable=0;rotatable=0;perimeter=centerPerimeter;snapToPoint=1;" vertex="1" parent="WIyWlLk6GJQsqaUBKTNV-1">
          <mxGeometry x="555" y="290" width="40" height="40" as="geometry" />
        </mxCell>
        <mxCell id="ZDeLqN6teNjvPkuS5_9t-28" value="&lt;b&gt;F&lt;/b&gt;" style="text;html=1;align=center;verticalAlign=middle;resizable=0;points=[];autosize=1;strokeColor=none;" vertex="1" parent="WIyWlLk6GJQsqaUBKTNV-1">
          <mxGeometry x="400" y="550" width="20" height="20" as="geometry" />
        </mxCell>
        <mxCell id="ZDeLqN6teNjvPkuS5_9t-29" value="&lt;b&gt;True&lt;/b&gt;" style="text;html=1;align=center;verticalAlign=middle;resizable=0;points=[];autosize=1;strokeColor=none;" vertex="1" parent="WIyWlLk6GJQsqaUBKTNV-1">
          <mxGeometry x="460" y="490" width="40" height="20" as="geometry" />
        </mxCell>
      </root>
    </mxGraphModel>
  </diagram>
  <diagram id="8yvz5hKMZ4V9PlTdybbN" name="Page-2">
    <mxGraphModel dx="1221" dy="682" grid="1" gridSize="10" guides="1" tooltips="1" connect="1" arrows="1" fold="1" page="1" pageScale="1" pageWidth="850" pageHeight="1100" math="0" shadow="0">
      <root>
        <mxCell id="5OWWDSPamfGqLtoedElc-0" />
        <mxCell id="5OWWDSPamfGqLtoedElc-1" parent="5OWWDSPamfGqLtoedElc-0" />
        <mxCell id="5OWWDSPamfGqLtoedElc-12" value="" style="edgeStyle=orthogonalEdgeStyle;rounded=0;orthogonalLoop=1;jettySize=auto;html=1;" edge="1" parent="5OWWDSPamfGqLtoedElc-1" source="5OWWDSPamfGqLtoedElc-2" target="5OWWDSPamfGqLtoedElc-4">
          <mxGeometry relative="1" as="geometry" />
        </mxCell>
        <mxCell id="5OWWDSPamfGqLtoedElc-2" value="Start" style="ellipse;whiteSpace=wrap;html=1;" vertex="1" parent="5OWWDSPamfGqLtoedElc-1">
          <mxGeometry x="350" y="30" width="100" height="60" as="geometry" />
        </mxCell>
        <mxCell id="5OWWDSPamfGqLtoedElc-3" value="i=1" style="rounded=0;whiteSpace=wrap;html=1;" vertex="1" parent="5OWWDSPamfGqLtoedElc-1">
          <mxGeometry x="350" y="120" width="110" height="40" as="geometry" />
        </mxCell>
        <mxCell id="5OWWDSPamfGqLtoedElc-13" value="" style="edgeStyle=orthogonalEdgeStyle;rounded=0;orthogonalLoop=1;jettySize=auto;html=1;" edge="1" parent="5OWWDSPamfGqLtoedElc-1" source="5OWWDSPamfGqLtoedElc-4" target="5OWWDSPamfGqLtoedElc-5">
          <mxGeometry relative="1" as="geometry" />
        </mxCell>
        <mxCell id="5OWWDSPamfGqLtoedElc-4" value="sum=0" style="rounded=0;whiteSpace=wrap;html=1;" vertex="1" parent="5OWWDSPamfGqLtoedElc-1">
          <mxGeometry x="350" y="180" width="110" height="40" as="geometry" />
        </mxCell>
        <mxCell id="5OWWDSPamfGqLtoedElc-11" style="edgeStyle=orthogonalEdgeStyle;rounded=0;orthogonalLoop=1;jettySize=auto;html=1;entryX=0;entryY=0.5;entryDx=0;entryDy=0;" edge="1" parent="5OWWDSPamfGqLtoedElc-1" source="5OWWDSPamfGqLtoedElc-5" target="5OWWDSPamfGqLtoedElc-8">
          <mxGeometry relative="1" as="geometry">
            <mxPoint x="340" y="470" as="targetPoint" />
            <Array as="points">
              <mxPoint x="260" y="290" />
              <mxPoint x="260" y="550" />
            </Array>
          </mxGeometry>
        </mxCell>
        <mxCell id="5OWWDSPamfGqLtoedElc-14" value="" style="edgeStyle=orthogonalEdgeStyle;rounded=0;orthogonalLoop=1;jettySize=auto;html=1;" edge="1" parent="5OWWDSPamfGqLtoedElc-1" source="5OWWDSPamfGqLtoedElc-5" target="5OWWDSPamfGqLtoedElc-7">
          <mxGeometry relative="1" as="geometry" />
        </mxCell>
        <mxCell id="5OWWDSPamfGqLtoedElc-5" value="if&lt;br&gt;i%2==0" style="rhombus;whiteSpace=wrap;html=1;" vertex="1" parent="5OWWDSPamfGqLtoedElc-1">
          <mxGeometry x="365" y="250" width="80" height="80" as="geometry" />
        </mxCell>
        <mxCell id="5OWWDSPamfGqLtoedElc-6" value="sum=sum+i" style="rounded=0;whiteSpace=wrap;html=1;" vertex="1" parent="5OWWDSPamfGqLtoedElc-1">
          <mxGeometry x="350" y="360" width="110" height="40" as="geometry" />
        </mxCell>
        <mxCell id="5OWWDSPamfGqLtoedElc-10" style="edgeStyle=orthogonalEdgeStyle;rounded=0;orthogonalLoop=1;jettySize=auto;html=1;entryX=1;entryY=0.5;entryDx=0;entryDy=0;" edge="1" parent="5OWWDSPamfGqLtoedElc-1" source="5OWWDSPamfGqLtoedElc-7" target="5OWWDSPamfGqLtoedElc-5">
          <mxGeometry relative="1" as="geometry">
            <mxPoint x="450" y="280" as="targetPoint" />
            <Array as="points">
              <mxPoint x="570" y="460" />
              <mxPoint x="570" y="290" />
            </Array>
          </mxGeometry>
        </mxCell>
        <mxCell id="5OWWDSPamfGqLtoedElc-15" value="" style="edgeStyle=orthogonalEdgeStyle;rounded=0;orthogonalLoop=1;jettySize=auto;html=1;" edge="1" parent="5OWWDSPamfGqLtoedElc-1" source="5OWWDSPamfGqLtoedElc-7" target="5OWWDSPamfGqLtoedElc-8">
          <mxGeometry relative="1" as="geometry" />
        </mxCell>
        <mxCell id="5OWWDSPamfGqLtoedElc-7" value="i=i+1" style="rounded=0;whiteSpace=wrap;html=1;" vertex="1" parent="5OWWDSPamfGqLtoedElc-1">
          <mxGeometry x="350" y="440" width="110" height="40" as="geometry" />
        </mxCell>
        <mxCell id="5OWWDSPamfGqLtoedElc-16" value="" style="edgeStyle=orthogonalEdgeStyle;rounded=0;orthogonalLoop=1;jettySize=auto;html=1;" edge="1" parent="5OWWDSPamfGqLtoedElc-1" source="5OWWDSPamfGqLtoedElc-8" target="5OWWDSPamfGqLtoedElc-9">
          <mxGeometry relative="1" as="geometry" />
        </mxCell>
        <mxCell id="5OWWDSPamfGqLtoedElc-8" value="if k=50" style="rhombus;whiteSpace=wrap;html=1;" vertex="1" parent="5OWWDSPamfGqLtoedElc-1">
          <mxGeometry x="365" y="510" width="80" height="80" as="geometry" />
        </mxCell>
        <mxCell id="5OWWDSPamfGqLtoedElc-9" value="End" style="ellipse;whiteSpace=wrap;html=1;" vertex="1" parent="5OWWDSPamfGqLtoedElc-1">
          <mxGeometry x="355" y="620" width="100" height="60" as="geometry" />
        </mxCell>
        <mxCell id="5OWWDSPamfGqLtoedElc-17" value="&lt;b&gt;False&lt;/b&gt;" style="text;html=1;align=center;verticalAlign=middle;resizable=0;points=[];autosize=1;strokeColor=none;" vertex="1" parent="5OWWDSPamfGqLtoedElc-1">
          <mxGeometry x="570" y="350" width="50" height="20" as="geometry" />
        </mxCell>
        <mxCell id="5OWWDSPamfGqLtoedElc-18" value="&lt;b&gt;True&lt;/b&gt;" style="text;html=1;align=center;verticalAlign=middle;resizable=0;points=[];autosize=1;strokeColor=none;" vertex="1" parent="5OWWDSPamfGqLtoedElc-1">
          <mxGeometry x="220" y="390" width="40" height="20" as="geometry" />
        </mxCell>
      </root>
    </mxGraphModel>
  </diagram>
  <diagram id="QR_p3zqWKV_QTerJkes7" name="Page-3">
    <mxGraphModel dx="1221" dy="682" grid="1" gridSize="10" guides="1" tooltips="1" connect="1" arrows="1" fold="1" page="1" pageScale="1" pageWidth="850" pageHeight="1100" math="0" shadow="0">
      <root>
        <mxCell id="yrrSqcjhbb1oExmNnbAN-0" />
        <mxCell id="yrrSqcjhbb1oExmNnbAN-1" parent="yrrSqcjhbb1oExmNnbAN-0" />
        <mxCell id="yrrSqcjhbb1oExmNnbAN-14" value="" style="edgeStyle=orthogonalEdgeStyle;rounded=0;orthogonalLoop=1;jettySize=auto;html=1;" edge="1" parent="yrrSqcjhbb1oExmNnbAN-1" source="yrrSqcjhbb1oExmNnbAN-2" target="yrrSqcjhbb1oExmNnbAN-4">
          <mxGeometry relative="1" as="geometry" />
        </mxCell>
        <mxCell id="yrrSqcjhbb1oExmNnbAN-2" value="Start" style="ellipse;whiteSpace=wrap;html=1;" vertex="1" parent="yrrSqcjhbb1oExmNnbAN-1">
          <mxGeometry x="325" y="40" width="100" height="60" as="geometry" />
        </mxCell>
        <mxCell id="yrrSqcjhbb1oExmNnbAN-13" value="" style="edgeStyle=orthogonalEdgeStyle;rounded=0;orthogonalLoop=1;jettySize=auto;html=1;" edge="1" parent="yrrSqcjhbb1oExmNnbAN-1" source="yrrSqcjhbb1oExmNnbAN-3" target="yrrSqcjhbb1oExmNnbAN-5">
          <mxGeometry relative="1" as="geometry" />
        </mxCell>
        <mxCell id="yrrSqcjhbb1oExmNnbAN-3" value="n=25346" style="shape=parallelogram;perimeter=parallelogramPerimeter;whiteSpace=wrap;html=1;fixedSize=1;" vertex="1" parent="yrrSqcjhbb1oExmNnbAN-1">
          <mxGeometry x="315" y="130" width="120" height="50" as="geometry" />
        </mxCell>
        <mxCell id="yrrSqcjhbb1oExmNnbAN-12" value="" style="edgeStyle=orthogonalEdgeStyle;rounded=0;orthogonalLoop=1;jettySize=auto;html=1;" edge="1" parent="yrrSqcjhbb1oExmNnbAN-1" source="yrrSqcjhbb1oExmNnbAN-4" target="yrrSqcjhbb1oExmNnbAN-5">
          <mxGeometry relative="1" as="geometry" />
        </mxCell>
        <mxCell id="yrrSqcjhbb1oExmNnbAN-4" value="c=0" style="rounded=0;whiteSpace=wrap;html=1;" vertex="1" parent="yrrSqcjhbb1oExmNnbAN-1">
          <mxGeometry x="327.5" y="210" width="95" height="40" as="geometry" />
        </mxCell>
        <mxCell id="yrrSqcjhbb1oExmNnbAN-9" style="edgeStyle=orthogonalEdgeStyle;rounded=0;orthogonalLoop=1;jettySize=auto;html=1;" edge="1" parent="yrrSqcjhbb1oExmNnbAN-1" source="yrrSqcjhbb1oExmNnbAN-5">
          <mxGeometry relative="1" as="geometry">
            <mxPoint x="440" y="510" as="targetPoint" />
            <Array as="points">
              <mxPoint x="550" y="320" />
              <mxPoint x="550" y="510" />
            </Array>
          </mxGeometry>
        </mxCell>
        <mxCell id="yrrSqcjhbb1oExmNnbAN-11" value="" style="edgeStyle=orthogonalEdgeStyle;rounded=0;orthogonalLoop=1;jettySize=auto;html=1;" edge="1" parent="yrrSqcjhbb1oExmNnbAN-1" source="yrrSqcjhbb1oExmNnbAN-5" target="yrrSqcjhbb1oExmNnbAN-6">
          <mxGeometry relative="1" as="geometry" />
        </mxCell>
        <mxCell id="yrrSqcjhbb1oExmNnbAN-16" value="&lt;b&gt;True&lt;/b&gt;" style="edgeLabel;html=1;align=center;verticalAlign=middle;resizable=0;points=[];" vertex="1" connectable="0" parent="yrrSqcjhbb1oExmNnbAN-11">
          <mxGeometry x="-0.6188" y="-15" relative="1" as="geometry">
            <mxPoint as="offset" />
          </mxGeometry>
        </mxCell>
        <mxCell id="yrrSqcjhbb1oExmNnbAN-5" value="n!=0" style="rhombus;whiteSpace=wrap;html=1;" vertex="1" parent="yrrSqcjhbb1oExmNnbAN-1">
          <mxGeometry x="335" y="280" width="80" height="80" as="geometry" />
        </mxCell>
        <mxCell id="yrrSqcjhbb1oExmNnbAN-17" style="edgeStyle=orthogonalEdgeStyle;rounded=0;orthogonalLoop=1;jettySize=auto;html=1;" edge="1" parent="yrrSqcjhbb1oExmNnbAN-1" source="yrrSqcjhbb1oExmNnbAN-6">
          <mxGeometry relative="1" as="geometry">
            <mxPoint x="330" y="320" as="targetPoint" />
            <Array as="points">
              <mxPoint x="210" y="410" />
              <mxPoint x="210" y="320" />
            </Array>
          </mxGeometry>
        </mxCell>
        <mxCell id="yrrSqcjhbb1oExmNnbAN-6" value="c++&lt;br&gt;n=n/10" style="rounded=0;whiteSpace=wrap;html=1;" vertex="1" parent="yrrSqcjhbb1oExmNnbAN-1">
          <mxGeometry x="327.5" y="390" width="95" height="40" as="geometry" />
        </mxCell>
        <mxCell id="yrrSqcjhbb1oExmNnbAN-10" value="" style="edgeStyle=orthogonalEdgeStyle;rounded=0;orthogonalLoop=1;jettySize=auto;html=1;" edge="1" parent="yrrSqcjhbb1oExmNnbAN-1" source="yrrSqcjhbb1oExmNnbAN-7" target="yrrSqcjhbb1oExmNnbAN-8">
          <mxGeometry relative="1" as="geometry" />
        </mxCell>
        <mxCell id="yrrSqcjhbb1oExmNnbAN-7" value="print&amp;nbsp;&lt;br&gt;c" style="shape=parallelogram;perimeter=parallelogramPerimeter;whiteSpace=wrap;html=1;fixedSize=1;" vertex="1" parent="yrrSqcjhbb1oExmNnbAN-1">
          <mxGeometry x="327.5" y="480" width="120" height="50" as="geometry" />
        </mxCell>
        <mxCell id="yrrSqcjhbb1oExmNnbAN-8" value="End" style="ellipse;whiteSpace=wrap;html=1;" vertex="1" parent="yrrSqcjhbb1oExmNnbAN-1">
          <mxGeometry x="337.5" y="580" width="100" height="60" as="geometry" />
        </mxCell>
        <mxCell id="yrrSqcjhbb1oExmNnbAN-15" value="&lt;b&gt;False&lt;/b&gt;" style="text;html=1;align=center;verticalAlign=middle;resizable=0;points=[];autosize=1;strokeColor=none;" vertex="1" parent="yrrSqcjhbb1oExmNnbAN-1">
          <mxGeometry x="435" y="300" width="50" height="20" as="geometry" />
        </mxCell>
      </root>
    </mxGraphModel>
  </diagram>
</mxfile>
